<svg width="292" height="46" viewBox="0 0 292 46" fill="none" xmlns="http://www.w3.org/2000/svg">
<rect width="150" height="46" fill="white"/>
<path d="M8.5 35V31.7969L10.8438 31.2969V15.9688L8.5 15.4688V12.25H10.8438H19.2344L24.7344 27.2344H24.8281L30.1719 12.25H40.7812V15.4688L38.4219 15.9688V31.2969L40.7812 31.7969V35H30.5938V31.7969L33.0469 31.2969V28.3281L33.1719 17.625L33.0781 17.6094L26.6406 35H22.3281L15.7969 17.8125L15.6875 17.8281L16.0625 27.5781V31.2969L18.7031 31.7969V35H8.5Z" fill="#CCA43B"/>
<path d="M41.4531 35V31.7969L43.0469 31.5625L49.8281 12.25H55.7656L62.5625 31.5625L64.1562 31.7969V35H55.6562V31.7969L57.1406 31.5156L56.4531 29.0469H49.1406L48.4844 31.5156L49.9688 31.7969V35H41.4531ZM50.2969 25.2031H55.2812L53.0625 18.3125L52.8125 17.5156H52.7188L52.4531 18.3906L50.2969 25.2031ZM65.1406 35V31.7969L67.4844 31.2969V15.9688L65.1406 15.4688V12.25H67.4844H73.0625L82.1875 26.8125H82.2812V15.9688L79.2969 15.4688V12.25H87.1406H89.5V15.4688L87.1406 15.9688V35H81.7344L72.4375 20.75H72.3438V31.2969L75.3438 31.7969V35H65.1406ZM90.3438 35V31.7969L92.7031 31.2969V15.9688L90.3438 15.4688V12.25H100.531V15.4688L98.1719 15.9688V31.2969L100.531 31.7969V35H90.3438ZM110.281 35.3281C108.5 35.3281 106.958 35.0469 105.656 34.4844C104.365 33.9219 103.354 33.0625 102.625 31.9062C101.906 30.7396 101.516 29.2552 101.453 27.4531L101.484 27.3594H106.594C106.698 28.8281 107.016 29.8177 107.547 30.3281C108.089 30.8281 108.766 31.0781 109.578 31.0781C110.047 31.0781 110.495 30.974 110.922 30.7656C111.359 30.5573 111.719 30.224 112 29.7656C112.281 29.2969 112.422 28.6875 112.422 27.9375V15.9688L109.328 15.4531V12.25H120.25V15.4688L117.875 15.9688V27.9375C117.875 29.4688 117.578 30.7865 116.984 31.8906C116.391 32.9948 115.526 33.8438 114.391 34.4375C113.266 35.0312 111.896 35.3281 110.281 35.3281ZM118.641 35V31.7969L120.234 31.5625L127.016 12.25H132.953L139.75 31.5625L141.344 31.7969V35H132.844V31.7969L134.328 31.5156L133.641 29.0469H126.328L125.672 31.5156L127.156 31.7969V35H118.641ZM127.484 25.2031H132.469L130.25 18.3125L130 17.5156H129.906L129.641 18.3906L127.484 25.2031Z" fill="#363636"/>
<path d="M175.469 35.3281C174.083 35.3281 172.75 35.125 171.469 34.7188C170.188 34.3125 168.964 33.6875 167.797 32.8438V27.9844H170.188L170.703 31.5625C171.38 31.9792 172.115 32.3021 172.906 32.5312C173.698 32.7604 174.552 32.875 175.469 32.875C176.51 32.875 177.391 32.7188 178.109 32.4062C178.839 32.0833 179.396 31.6406 179.781 31.0781C180.167 30.5156 180.359 29.8594 180.359 29.1094C180.359 28.4115 180.193 27.7969 179.859 27.2656C179.526 26.7344 178.974 26.2708 178.203 25.875C177.443 25.4688 176.401 25.1146 175.078 24.8125C173.516 24.4479 172.193 23.9635 171.109 23.3594C170.036 22.7448 169.219 22.0052 168.656 21.1406C168.104 20.2656 167.828 19.2656 167.828 18.1406C167.828 16.9531 168.141 15.8906 168.766 14.9531C169.401 14.0156 170.281 13.276 171.406 12.7344C172.531 12.1927 173.844 11.9219 175.344 11.9219C176.938 11.9219 178.344 12.1667 179.562 12.6562C180.792 13.1354 181.802 13.7188 182.594 14.4062V18.9531H180.203L179.688 15.7031C179.219 15.3281 178.635 15.0156 177.938 14.7656C177.24 14.5156 176.375 14.3906 175.344 14.3906C174.469 14.3906 173.698 14.5469 173.031 14.8594C172.365 15.1615 171.844 15.5885 171.469 16.1406C171.094 16.6927 170.906 17.3438 170.906 18.0938C170.906 18.75 171.073 19.3229 171.406 19.8125C171.75 20.3021 172.302 20.7344 173.062 21.1094C173.833 21.474 174.859 21.8177 176.141 22.1406C178.536 22.7344 180.349 23.6146 181.578 24.7812C182.818 25.9375 183.438 27.3698 183.438 29.0781C183.438 30.2969 183.109 31.3802 182.453 32.3281C181.797 33.2656 180.87 34 179.672 34.5312C178.484 35.0625 177.083 35.3281 175.469 35.3281ZM191.719 35V33.0312L194.266 32.5938V14.5781H189.109L188.656 17.7344H186.344V12.25H205.25V17.7344H202.969L202.5 14.5781H197.344V32.5938L199.891 33.0312V35H191.719ZM218.609 35.3281C217.047 35.3281 215.651 35.0208 214.422 34.4062C213.193 33.7917 212.224 32.9167 211.516 31.7812C210.807 30.6354 210.453 29.2656 210.453 27.6719V14.6719L207.906 14.2344V12.25H216.078V14.2344L213.531 14.6719V27.6719C213.531 28.8073 213.745 29.7604 214.172 30.5312C214.609 31.3021 215.214 31.8854 215.984 32.2812C216.755 32.6667 217.646 32.8594 218.656 32.8594C219.677 32.8594 220.578 32.6667 221.359 32.2812C222.151 31.8958 222.766 31.3177 223.203 30.5469C223.651 29.776 223.875 28.8177 223.875 27.6719V14.6719L221.328 14.2344V12.25H229.5V14.2344L226.953 14.6719V27.6719C226.953 29.3177 226.604 30.7135 225.906 31.8594C225.219 32.9948 224.25 33.8594 223 34.4531C221.75 35.0365 220.286 35.3281 218.609 35.3281ZM231.859 35V33.0312L234.406 32.5938V14.6719L231.859 14.2344V12.25H234.406H240.766C242.776 12.25 244.526 12.7292 246.016 13.6875C247.516 14.6458 248.682 15.9635 249.516 17.6406C250.349 19.3177 250.766 21.2344 250.766 23.3906V23.875C250.766 25.9792 250.365 27.875 249.562 29.5625C248.76 31.2396 247.62 32.5677 246.141 33.5469C244.672 34.5156 242.932 35 240.922 35H231.859ZM237.484 32.5938H240.766C242.203 32.5938 243.438 32.2031 244.469 31.4219C245.5 30.6302 246.292 29.5781 246.844 28.2656C247.406 26.9427 247.688 25.4792 247.688 23.875V23.3594C247.688 21.7031 247.406 20.224 246.844 18.9219C246.292 17.6094 245.5 16.5729 244.469 15.8125C243.438 15.0521 242.203 14.6719 240.766 14.6719H237.484V32.5938ZM253.047 35V33.0312L255.594 32.5938V14.6719L253.047 14.2344V12.25H261.219V14.2344L258.672 14.6719V32.5938L261.219 33.0312V35H253.047ZM273.047 35.3281C271.578 35.3281 270.26 35.0469 269.094 34.4844C267.927 33.9219 266.932 33.1302 266.109 32.1094C265.297 31.0781 264.672 29.8594 264.234 28.4531C263.807 27.0469 263.594 25.4948 263.594 23.7969V23.4688C263.594 21.7812 263.807 20.2344 264.234 18.8281C264.672 17.4115 265.297 16.1875 266.109 15.1562C266.932 14.125 267.927 13.3281 269.094 12.7656C270.26 12.2031 271.578 11.9219 273.047 11.9219C274.599 11.9219 275.964 12.2031 277.141 12.7656C278.318 13.3281 279.302 14.125 280.094 15.1562C280.896 16.1875 281.5 17.4115 281.906 18.8281C282.312 20.2344 282.516 21.7812 282.516 23.4688V23.7969C282.516 25.4948 282.312 27.0469 281.906 28.4531C281.5 29.8594 280.896 31.0781 280.094 32.1094C279.302 33.1302 278.318 33.9219 277.141 34.4844C275.964 35.0469 274.599 35.3281 273.047 35.3281ZM273.047 32.7656C274.557 32.7656 275.776 32.3906 276.703 31.6406C277.641 30.8906 278.328 29.8438 278.766 28.5C279.203 27.1458 279.422 25.5781 279.422 23.7969V23.4375C279.422 21.6667 279.198 20.1146 278.75 18.7812C278.312 17.4375 277.625 16.3906 276.688 15.6406C275.75 14.8802 274.536 14.5 273.047 14.5C271.682 14.5 270.526 14.8802 269.578 15.6406C268.63 16.401 267.911 17.4531 267.422 18.7969C266.932 20.1302 266.688 21.6771 266.688 23.4375V23.7969C266.688 25.5677 266.932 27.1302 267.422 28.4844C267.911 29.8281 268.63 30.8802 269.578 31.6406C270.526 32.3906 271.682 32.7656 273.047 32.7656Z" fill="#363636"/>
<path d="M158 2H292V-2H158V2ZM292 44H158V48H292V44Z" fill="#363636" mask="url(#path-2-inside-1_263_21)"/>
</svg>
