<svg width="100" height="92" viewBox="0 0 100 92" fill="none" xmlns="http://www.w3.org/2000/svg">
<rect width="50" height="46" fill="white"/>
<path d="M8.5 35V31.7969L10.8438 31.2969V15.9688L8.5 15.4688V12.25H10.8438H19.2344L24.7344 27.2344H24.8281L30.1719 12.25H40.7812V15.4688L38.4219 15.9688V31.2969L40.7812 31.7969V35H30.5938V31.7969L33.0469 31.2969V28.3281L33.1719 17.625L33.0781 17.6094L26.6406 35H22.3281L15.7969 17.8125L15.6875 17.8281L16.0625 27.5781V31.2969L18.7031 31.7969V35H8.5Z" fill="#CCA43B"/>
<rect width="50" height="46" transform="translate(50)" fill="#363636"/>
<rect width="50" height="46" transform="translate(0 46)" fill="#363636"/>
<path d="M74.9688 81.3281C73.5833 81.3281 72.25 81.125 70.9688 80.7188C69.6875 80.3125 68.4635 79.6875 67.2969 78.8438V73.9844H69.6875L70.2031 77.5625C70.8802 77.9792 71.6146 78.3021 72.4062 78.5312C73.1979 78.7604 74.0521 78.875 74.9688 78.875C76.0104 78.875 76.8906 78.7188 77.6094 78.4062C78.3385 78.0833 78.8958 77.6406 79.2812 77.0781C79.6667 76.5156 79.8594 75.8594 79.8594 75.1094C79.8594 74.4115 79.6927 73.7969 79.3594 73.2656C79.026 72.7344 78.474 72.2708 77.7031 71.875C76.9427 71.4688 75.901 71.1146 74.5781 70.8125C73.0156 70.4479 71.6927 69.9635 70.6094 69.3594C69.5365 68.7448 68.7188 68.0052 68.1562 67.1406C67.6042 66.2656 67.3281 65.2656 67.3281 64.1406C67.3281 62.9531 67.6406 61.8906 68.2656 60.9531C68.901 60.0156 69.7812 59.276 70.9062 58.7344C72.0312 58.1927 73.3438 57.9219 74.8438 57.9219C76.4375 57.9219 77.8438 58.1667 79.0625 58.6562C80.2917 59.1354 81.3021 59.7188 82.0938 60.4062V64.9531H79.7031L79.1875 61.7031C78.7188 61.3281 78.1354 61.0156 77.4375 60.7656C76.7396 60.5156 75.875 60.3906 74.8438 60.3906C73.9688 60.3906 73.1979 60.5469 72.5312 60.8594C71.8646 61.1615 71.3438 61.5885 70.9688 62.1406C70.5938 62.6927 70.4062 63.3438 70.4062 64.0938C70.4062 64.75 70.5729 65.3229 70.9062 65.8125C71.25 66.3021 71.8021 66.7344 72.5625 67.1094C73.3333 67.474 74.3594 67.8177 75.6406 68.1406C78.0365 68.7344 79.849 69.6146 81.0781 70.7812C82.3177 71.9375 82.9375 73.3698 82.9375 75.0781C82.9375 76.2969 82.6094 77.3802 81.9531 78.3281C81.2969 79.2656 80.3698 80 79.1719 80.5312C77.9844 81.0625 76.5833 81.3281 74.9688 81.3281Z" fill="#363636"/>
<path d="M50 48H100V44H50V48ZM100 90H50V94H100V90Z" fill="#363636" mask="url(#path-2-inside-1_263_23)"/>
</svg>
